# xmcd
#
# Track frame offsets:
#	150
#	14451
#	29353
#	44062
#	58008
#	75717
#	90128
#	106143
#	122279
#	134540
#	151476
#	168502
#	184815
#	202045
#
# Disc length: 2919 seconds
#
# Revision: 0
# Processed by: cddbd v1.5.2PL0 Copyright (c) Steve Scherf et al.
# Submitted via: EasyCDDAExtractor 15.3.0.1
#
DISCID=b50b650e
DTITLE=Caddy - Electric Hero
DYEAR=2010
DGENRE=Rock - Powerpop
TTITLE0=Hanging on to Nothing
TTITLE1=Electric Hero
TTITLE2=Turn up the Radio
TTITLE3=Keep on Waiting
TTITLE4=Waste of Space
TTITLE5=Dumb Angel
TTITLE6=The Perfect Alibi
TTITLE7=This Good Feeling
TTITLE8=Time to Take Control
TTITLE9=Break Down and Out
TTITLE10=Twister
TTITLE11=Put out the Flame
TTITLE12=Calling California
TTITLE13=Long Way Home
EXTD=
EXTT0=
EXTT1=
EXTT2=
EXTT3=
EXTT4=
EXTT5=
EXTT6=
EXTT7=
EXTT8=
EXTT9=
EXTT10=
EXTT11=
EXTT12=
EXTT13=
PLAYORDER=
